<?xml version="1.0" standalone="no"?>
<!DOCTYPE svg PUBLIC "-//W3C//DTD SVG 20010904//EN"
 "http://www.w3.org/TR/2001/REC-SVG-20010904/DTD/svg10.dtd">
<svg version="1.0" xmlns="http://www.w3.org/2000/svg"
 width="787.000000pt" height="787.000000pt" viewBox="0 0 787.000000 787.000000"
 preserveAspectRatio="xMidYMid meet">

<g transform="translate(0.000000,787.000000) scale(0.100000,-0.100000)"
fill="#000000" stroke="none">
<path d="M5150 5643 c-14 -2 -62 -22 -107 -45 -102 -49 -180 -128 -214 -215
-33 -87 -38 -228 -10 -311 42 -123 89 -180 234 -284 l97 -70 0 -478 c0 -508 5
-571 43 -592 16 -8 156 -9 534 -4 l512 7 228 -183 c125 -101 238 -199 251
-218 43 -64 16 -100 -213 -285 -225 -181 -253 -194 -439 -204 -116 -6 -130 -9
-147 -29 -26 -33 -32 -109 -20 -277 12 -176 28 -246 87 -375 57 -128 65 -180
58 -380 -7 -188 -1 -226 49 -292 40 -53 143 -132 217 -167 46 -21 69 -26 145
-26 85 0 96 2 166 37 183 91 298 272 287 453 -11 172 -137 319 -323 375 -22 6
-108 15 -191 19 -118 5 -157 11 -178 24 -80 53 -139 343 -81 407 12 13 31 20
55 20 109 0 552 296 787 526 123 119 123 118 -4 244 -100 99 -374 322 -519
423 -100 70 -178 107 -225 107 -59 0 -96 18 -108 52 -26 75 -1 262 49 364 36
73 65 90 137 79 77 -11 203 -7 268 10 216 57 365 287 326 506 -15 91 -71 199
-129 250 -187 166 -462 161 -627 -12 -114 -119 -147 -253 -109 -440 23 -117
15 -156 -70 -337 -91 -192 -96 -224 -70 -424 l7 -48 -272 0 -272 0 3 433 c3
500 -1 475 98 528 118 63 187 161 210 300 15 88 0 191 -39 274 -85 180 -291
290 -481 258z m168 -222 c47 -24 129 -110 148 -156 30 -74 7 -153 -66 -218
-46 -43 -132 -87 -168 -87 -56 0 -182 95 -208 157 -31 74 -9 160 61 241 69 79
156 103 233 63z m1203 -414 c118 -49 169 -115 169 -220 0 -134 -90 -226 -221
-227 -142 0 -228 79 -229 210 0 95 62 199 143 239 53 26 69 26 138 -2z m14
-3118 c23 -7 57 -28 82 -53 83 -84 92 -213 20 -309 -40 -52 -124 -97 -181 -97
-132 1 -235 139 -207 278 19 95 61 144 151 175 54 19 82 20 135 6z"/>
<path d="M3931 5219 c-72 -14 -168 -65 -224 -118 -179 -169 -176 -435 8 -630
35 -37 88 -80 117 -96 52 -29 56 -30 215 -31 170 -2 196 -6 227 -33 30 -25 84
-147 102 -228 19 -85 15 -186 -7 -208 -9 -9 -51 -18 -109 -24 -118 -13 -195
-48 -225 -103 -25 -47 -13 -63 63 -79 135 -28 653 -26 737 2 34 12 40 19 43
45 6 58 -86 134 -161 134 -19 0 -48 5 -65 11 -38 13 -52 53 -52 147 0 117 -25
206 -99 352 -38 75 -72 150 -76 168 -4 22 2 60 20 123 22 75 27 106 23 164
-12 186 -170 359 -365 400 -75 16 -107 17 -172 4z m150 -201 c57 -17 113 -70
148 -140 36 -71 38 -106 12 -165 -46 -101 -159 -166 -255 -145 -63 13 -132 57
-161 100 -117 178 54 411 256 350z"/>
<path d="M2200 4744 c-382 -51 -703 -206 -955 -459 -130 -131 -207 -235 -284
-388 -219 -432 -223 -920 -10 -1367 88 -185 177 -308 326 -451 162 -155 348
-268 564 -340 159 -53 257 -70 449 -76 148 -4 193 -2 295 15 315 54 576 188
815 418 136 132 213 228 286 358 l51 91 308 0 307 0 19 -24 c38 -46 17 -168
-52 -308 -55 -113 -69 -120 -209 -104 -127 15 -184 6 -286 -44 -182 -89 -284
-294 -241 -483 46 -203 149 -314 319 -342 185 -30 332 5 429 103 114 114 155
281 108 447 -28 101 -21 140 50 280 78 153 100 228 111 378 7 102 13 134 35
178 31 63 108 136 169 159 58 22 100 10 201 -57 88 -59 112 -87 126 -144 6
-21 13 -217 16 -435 l6 -396 -135 -121 c-202 -183 -225 -224 -216 -390 14
-256 195 -443 434 -446 74 -1 86 2 159 38 152 75 266 223 283 366 11 90 -1
152 -44 239 -39 80 -136 186 -204 226 -65 38 -65 33 -68 525 l-3 445 113 80
c179 126 258 216 258 294 0 35 -30 71 -59 71 -33 0 -148 -66 -285 -163 -72
-51 -136 -96 -142 -100 -7 -4 -71 42 -145 104 -155 128 -201 155 -250 145 -57
-10 -156 -76 -262 -174 -79 -73 -110 -95 -151 -107 -47 -14 -337 -29 -726 -38
l-105 -2 -65 -123 c-80 -151 -130 -221 -240 -331 -194 -196 -441 -338 -672
-386 -104 -22 -297 -29 -441 -16 -234 22 -396 76 -570 191 -199 132 -361 317
-468 535 -183 376 -185 795 -4 1173 71 147 141 248 245 352 143 143 314 245
520 314 143 47 267 66 430 66 286 0 526 -74 758 -232 154 -106 335 -301 412
-446 92 -173 194 -240 261 -169 29 31 21 71 -41 192 -105 208 -298 434 -500
587 -122 92 -321 195 -437 226 -71 20 -448 83 -476 81 -7 -1 -59 -7 -117 -15z
m1926 -2892 c57 -29 121 -102 130 -148 14 -75 -36 -182 -112 -240 -41 -32
-121 -43 -177 -25 -128 43 -207 189 -163 304 20 53 68 101 121 122 53 20 149
14 201 -13z m1177 -383 c123 -62 176 -126 177 -212 0 -55 -22 -100 -80 -161
-64 -68 -134 -101 -196 -91 -124 18 -211 178 -171 316 17 57 56 102 132 153
50 33 62 33 138 -5z"/>
<path d="M1841 3680 c-143 -52 -265 -176 -317 -324 -41 -114 -35 -277 12 -374
55 -112 186 -224 318 -270 60 -21 84 -24 162 -20 84 3 100 8 177 46 213 105
342 356 296 574 -36 172 -179 316 -368 372 -77 22 -211 21 -280 -4z m279 -226
c109 -50 160 -124 168 -242 8 -126 -47 -214 -170 -272 -87 -41 -155 -48 -211
-21 -57 27 -142 117 -170 178 -30 67 -30 182 0 238 40 75 107 126 198 149 39
10 131 -5 185 -30z"/>
</g>
</svg>
