<svg version="1.2" xmlns="http://www.w3.org/2000/svg" viewBox="0 0 189 189" width="189" height="189"><style>.s0{fill:#000000}</style><path fill-rule="evenodd" class="s0" d="m128.1 42.3c6.4 4.3 6 14.9-0.6 17.9c-2.4 1.1-2.5 1.4-2.5 12v10.8h13.1l-0.5-3.3c-0.4-2.2 0.2-4.6 2-8c2-3.9 2.3-5.4 1.6-8c-2.6-9.6 7.3-17.1 15.8-12c7.4 4.3 6.4 15.6-1.6 18.9c-1.7 0.7-4.7 1.1-6.6 0.8c-3-0.5-3.5-0.3-4.6 2c-0.7 1.5-1.2 4.2-1.2 6.1c0 3 0.4 3.5 2.3 3.5c2.5 0 4.7 1.4 14 8.9c3.7 3 6.7 6 6.7 6.7c0 2.4-17.4 15.4-20.6 15.4c-2 0-2.4 0.5-2.4 3c0 1.6 0.5 4 1.1 5.4c1 2.2 1.8 2.5 5.8 2.4c11-0.3 16.2 10.3 8.7 17.8c-3.9 3.9-8.5 4.5-12.6 1.7c-4.5-3.1-5.1-4.5-4.6-10.5c0.3-4.2-0.1-6.3-1.4-8.6c-1-1.6-1.9-5.2-2-7.8c-0.4-8.5-0.5-8.4 4.3-8.4c3.5 0 5.1-0.7 9.2-4.1c8.5-6.9 8.4-6 1.1-11.8l-6.5-5.2l-10.8 0.1c-5.9 0.1-11.8 0.1-13 0.1c-2.3-0.1-2.3-0.3-2.3-13v-12.8l-3.4-2.4c-6.5-4.4-6.6-14.1-0.3-17.9c4.2-2.6 7.6-2.5 11.8 0.3zm-9.9 5.2c-2.4 3-1.9 6 1.4 8.1c1.8 1.3 2.7 1.3 4.6 0.3c4.3-2.3 5-5.7 1.8-8.9c-2.7-2.7-5.4-2.5-7.8 0.5zm32.7 7.5c-2.3 0-4.9 3.3-4.9 6.2c0 3.1 2.1 5 5.7 5c5 0 7.2-6.7 3.1-9.6c-1.2-0.9-3-1.6-3.9-1.6zm-2.1 75.4c-3.1 1.6-3.6 6.5-0.9 9c4.3 3.9 10.8-1.4 8.3-6.8c-1.3-2.9-4.3-3.8-7.4-2.2z" /><path fill-rule="evenodd" class="s0" d="m103.3 64.1c-0.9 2.3-0.7 3.4 1.3 6.6c1.5 2.4 2.3 5.4 2.4 8c0 3.8 0.3 4.3 2.4 4.3c2.6 0 5.1 2.4 4.1 4c-0.9 1.4-19.2 1.3-20.1-0.2c-1-1.5 2.4-3.8 5.8-3.8c2.5 0 2.8-0.4 2.8-3c0-1.7-0.7-4.4-1.5-6c-1.4-2.7-1.9-2.9-6.4-2.7c-4.2 0.2-5.4-0.2-7.9-2.6c-5.4-5.2-4.8-13.1 1.2-16.8c8.3-5.3 19.3 3.2 15.9 12.2zm-15.4-5.4c-2.1 5.6 5.4 10 9.4 5.5c2.1-2.3 2.1-4.1 0.1-7c-2.5-3.5-7.9-2.7-9.5 1.5z" /><path fill-rule="evenodd" class="s0" d="m53.5 61.5c1.1 0.2 4 0.6 6.4 1c6.2 0.8 12 3.7 17.7 8.9c5.1 4.5 11 13.8 9.9 15.6c-1.4 2.3-4.1 0.8-6.4-3.5c-3.3-6.3-9.7-11.8-16.7-14.5c-13.9-5.2-30.3 0-37.9 12c-8.5 13.5-6.2 30.8 5.6 41.4c6 5.4 12.1 7.6 21.3 7.6c5.7 0 8.3-0.6 13.1-2.8c6.3-3 12.5-9 15.2-14.7l1.7-3.5h10.1c9.6 0 10.3-0.1 12.6-2.6c1.3-1.4 3.6-3.2 5.1-4c2.5-1.3 2.9-1.2 6.8 2.1l4.1 3.4l4.9-3.5c2.7-2 5.4-3.3 6-2.9c2.2 1.3 0.8 4.3-3.5 7.4l-4.5 3.2v11.2c0 10.7 0.1 11.3 2.3 12.2c1.2 0.6 3.1 2.6 4.2 4.6c1.5 3 1.7 4.4 1 7.5c-1.1 4.2-6.1 8.4-10.1 8.4c-6 0-10.7-5-10.7-11.3c0-3.6 0.6-4.6 4.2-7.8l4.1-3.7v-10.5c0-10.5 0-10.6-2.9-12.6c-3.7-2.6-4.9-2.6-7.8 0.1c-1.7 1.6-2.3 3.3-2.3 6.4c0 2.6-0.9 5.8-2.4 8.5c-2 3.4-2.2 4.7-1.5 6.8c1.4 3.7 0.3 8.4-2.7 11.2c-2 1.8-3.7 2.4-7.4 2.4c-5.7 0-8.5-2.1-10.1-7.5c-2.3-7.5 4.6-14.9 12.5-13.4c3.1 0.5 3.6 0.3 5-2.5c0.9-1.6 1.6-4.1 1.6-5.6c0-2.5-0.1-2.5-7.8-2.5h-7.7l-2 3.6c-1 2-4.3 5.8-7.2 8.4c-17.3 15.8-45.5 10.9-56.5-9.7c-11.9-22.3 0.4-48.5 25.2-53.9c3-0.6 6.4-1 7.5-0.9zm35.1 70.6c-3.7 5.4 4.5 12 8.6 6.9c2.3-2.8 2.3-5.2 0-7.3c-2.6-2.4-6.8-2.1-8.6 0.4zm30.6 8.5c-4.1 2.8-2 10.4 2.9 10.4c2.4 0 5.9-3.4 5.9-5.8c0-2.3-1-3.7-3.7-5.1c-2.7-1.4-2.4-1.4-5.1 0.5z" /><path fill-rule="evenodd" class="s0" d="m55.7 93.1c4.3 8.3-3.7 19.3-12.8 17.5c-4.1-0.7-8.6-4.7-9.5-8.2c-1.6-6.3 1.3-12.4 7.1-15c5.2-2.3 12.5 0.4 15.2 5.7zm-8.4-0.9c-7.5-2.5-12.4 5.8-6.7 11.4c1.9 2 3.1 2.4 5.2 1.9c5.5-1.3 7.7-5.8 5.2-10.5c-0.5-1-2.2-2.2-3.7-2.8z" /></svg>